# xmcd
#
# Track frame offsets: 
#        150
#        12061
#        23457
#        40680
#        51470
#        62256
#        74498
#        87903
#        100633
#        113126
#        123111
#        136046
#        152029
#        162467
#        172884
#        189058
#
# Disc length: 2668 seconds
#
# Revision: 9
# Processed by: cddbd v1.5.2PL0 Copyright (c) Steve Scherf et al.
# Submitted via: ExactAudioCopy v0.99pb3
#
DISCID=b60a6a10
DTITLE=John Prine - In Spite Of Ourselves
DYEAR=1999
DGENRE=Country
TTITLE0=(We're Not) The Jet Set (w.Iris Dement)
TTITLE1=So Sad (To Watch Good Love Go Bad) (w.Connie Smith)
TTITLE2=Wedding Bells/Let's Turn Back The Years (w.Lucinda Williams)
TTITLE3=When Two Worlds Collide (w.Trisha Yearwood)
TTITLE4=Milwaukee Here I Come (w.Melba Montgomery)
TTITLE5=I Know One (w.Emmylou Harris)
TTITLE6=It's A Cheating Situation (w.Delores Keane)
TTITLE7=Back Street Affair (w.Patty Loveless)
TTITLE8=Loose Talk (w.Connie Smith)
TTITLE9=Let's Invite Them Over (w.Iris Dement)
TTITLE10='Til A Tear Becomes A Rose (w.Fiona Prine)
TTITLE11=In A Town This Size (w.Delores Keane)
TTITLE12=We Could (w.Iris Dement)
TTITLE13=We Must Have Been Out Of Our Minds (w.Melba Montgomery)
TTITLE14=In Spite Of Ourselves (w.Iris Dement)
TTITLE15=Dear John (I Sent Your Saddle Home)
EXTD=
EXTT0=with Iris DeMent
EXTT1=with Connie Smith
EXTT2=with Lucinda Williams
EXTT3=with Trisha Yearwood
EXTT4=with Melba Montgomery
EXTT5=with Emmylou Harris
EXTT6=with Dolores Keane
EXTT7=with Patty Loveless
EXTT8=with Connie Smith
EXTT9=with Iris DeMent
EXTT10=with Fiona Prine
EXTT11=with Dolores Keane
EXTT12=with Iris DeMent
EXTT13=with Melba Montgomery
EXTT14=with Iris DeMent
EXTT15=
PLAYORDER=
